<svg width="15" height="15" viewBox="0 0 15 15" fill="none" xmlns="http://www.w3.org/2000/svg">
<path d="M13.4856 0.166283C13.4856 0.835419 13.3861 1.7488 13.2404 2.43383C13.2231 2.51332 13.2058 2.60003 13.2014 2.6246L13.1928 2.67229L13.05 2.53789C12.2971 1.83407 11.7058 1.39327 10.9933 1.00451C10.2649 0.607075 9.38942 0.305024 8.60336 0.17929C8.52404 0.167728 8.44183 0.154722 8.41875 0.150386C8.29183 0.128707 7.9601 0.0983582 7.71779 0.085351C7.1149 0.0521111 6.41106 0.125817 5.76202 0.289127C4.52308 0.602739 3.40385 1.26899 2.42308 2.2763C1.49856 3.22581 0.676442 4.56264 0.165865 5.93848C0.0836538 6.16105 0 6.41107 0 6.43564C0 6.44287 0.0346154 6.41685 0.0764423 6.37783C0.178846 6.281 0.288462 6.19862 0.519231 6.04399C1.05577 5.68557 1.63125 5.38641 2.2774 5.12627C2.47212 5.04968 2.47067 5.04968 2.48798 5.14217C2.52548 5.35173 2.67692 5.89802 2.78365 6.20585C2.90625 6.55559 3.15144 7.09899 3.2351 7.20161L3.26827 7.24352L3.32308 7.02095C3.41827 6.63652 3.60288 6.10324 3.78462 5.69713C4.29663 4.54674 5.04808 3.63047 5.88606 3.13332C6.35336 2.85583 6.90721 2.67518 7.52885 2.59714C7.75385 2.56968 8.36827 2.57402 8.59615 2.60581C9.71394 2.7619 10.7034 3.20413 11.7159 4.00045C11.8687 4.1204 11.8918 4.14641 11.8471 4.14641C11.8111 4.14641 11.5428 4.2259 11.2832 4.31406C10.6947 4.51061 10.1942 4.74473 9.74279 5.03378L9.6274 5.10748L9.74279 5.1176C10.0716 5.14651 10.4308 5.22599 10.8389 5.36329C11.8587 5.70291 12.8942 6.30846 13.9399 7.17415C14.1606 7.35769 14.2212 7.40105 14.2212 7.37792C14.2212 7.37503 14.237 7.31144 14.2558 7.23774C14.3553 6.85042 14.4187 6.40818 14.4837 5.64944C14.5082 5.36473 14.5082 4.20711 14.4837 3.92241C14.4317 3.31252 14.3928 3.00325 14.3062 2.52777C14.1649 1.75458 13.9024 0.912016 13.5721 0.172064C13.5317 0.0810156 13.4957 0.00441885 13.4928 8.29697e-05C13.4885 -0.00280714 13.4856 0.070899 13.4856 0.166283Z" fill="black"/>
<path d="M0.773136 7.58748C0.752944 7.64818 0.584194 8.6974 0.562559 8.89395C0.504867 9.4229 0.499098 9.55008 0.499098 10.2308C0.497656 11.0257 0.516406 11.2988 0.621694 12.0301C0.757271 12.9767 1.01977 13.893 1.40342 14.7659L1.50727 15L1.51016 14.867C1.52169 14.4046 1.56064 13.8294 1.60967 13.4536C1.6515 13.1241 1.79141 12.3495 1.8116 12.3278C1.81592 12.3235 1.88804 12.3885 1.97314 12.4723C2.39429 12.8871 2.88179 13.2802 3.39669 13.6213C4.37025 14.2644 5.44621 14.6792 6.55535 14.8396C6.97794 14.9003 7.06737 14.9061 7.57217 14.9061C8.15198 14.9046 8.37121 14.8858 8.86304 14.789C10.6097 14.4479 12.1212 13.4478 13.3284 11.8321C14.0121 10.9158 14.5645 9.85936 14.9438 8.74221C14.9741 8.65116 15.0001 8.57167 15.0001 8.56444C15.0001 8.55866 14.9597 8.58901 14.9092 8.63381C14.4924 9.00668 13.5188 9.55586 12.7068 9.87526L12.5409 9.94029L12.5251 9.88682C12.515 9.85791 12.4876 9.74519 12.4616 9.63824C12.3722 9.25526 12.2539 8.8795 12.1053 8.49652C12.0073 8.24794 11.8241 7.86929 11.765 7.79703L11.7303 7.75512L11.6856 7.94156C11.4779 8.7899 11.1001 9.65847 10.6371 10.3507C9.81496 11.5835 8.83708 12.2208 7.50727 12.3928C7.24766 12.4261 6.69669 12.4261 6.43275 12.3928C5.31785 12.2512 4.28948 11.7916 3.25967 10.9765C3.19189 10.923 3.13564 10.8739 3.13275 10.8681C3.13131 10.8623 3.18612 10.8421 3.25535 10.8233C3.44141 10.7756 3.94477 10.6065 4.16112 10.5198C4.50439 10.3825 4.90391 10.1802 5.22698 9.97931L5.36977 9.89115L5.27025 9.88104C4.21592 9.77554 2.87891 9.196 1.69477 8.33176C1.5491 8.22626 0.959194 7.73633 0.833713 7.61783C0.794771 7.58025 0.777463 7.57158 0.773136 7.58748Z" fill="black"/>
</svg>
