<svg width="20" height="20" viewBox="0 0 20 20" fill="none" xmlns="http://www.w3.org/2000/svg">
<path d="M10.0006 13.0001C9.44613 13.0001 8.99668 13.4478 8.99668 14C8.99668 14.5523 9.44613 15 10.0006 15C10.555 15 11.0045 14.5523 11.0045 14C11.0046 13.4478 10.555 13.0001 10.0006 13.0001ZM16 0H4.00003C1.79082 0 0 1.79082 0 3.99988V16C0 18.2092 1.79082 20 4.00003 20H16C18.2092 20 20 18.2092 20 16V3.99988C20 1.79082 18.2092 0 16 0V0ZM18.0001 15C18.0001 16.6568 16.6569 17.9999 15 17.9999H5C3.3432 17.9999 1.99994 16.6567 1.99994 15V5C1.99994 3.3432 3.34306 1.99994 5 1.99994H15C16.6568 1.99994 18.0001 3.34306 18.0001 5V15ZM10.706 5C6.82946 5.01385 6.97194 7.27031 7.00009 8.00006H8.50989C8.59899 6.79126 9.20711 5.98874 10.3905 5.98874C11.2282 5.98874 11.9859 6.46343 11.9859 7.33608C11.9859 8.11439 11.3174 8.32206 10.6045 9.01301C9.64432 9.94663 9.35265 10.5088 9.35265 11.1465C9.35265 11.8347 9.39421 11.7148 9.60815 12.0001H10.6437C10.5724 11.7316 10.6134 11.7958 10.6134 11.5776C10.6134 10.7917 11.0857 10.3792 12.1194 9.72467C12.85 9.27157 13.9906 8.97072 13.9906 7.46033C13.9904 5.5807 12.2521 4.99446 10.706 5Z" fill="black"/>
</svg>
